<svg xmlns="http://www.w3.org/2000/svg" viewBox="0 0 512 512">
  <defs>
    <linearGradient id="grad" x1="0%" y1="0%" x2="100%" y2="100%">
      <stop offset="0%" style="stop-color:#F58C3B;stop-opacity:1" />
      <stop offset="100%" style="stop-color:#F05138;stop-opacity:1" />
    </linearGradient>
  </defs>
  <!-- Background -->
  <rect width="512" height="512" rx="96" fill="url(#grad)"/>
  <!-- Swift-inspired bird shape -->
  <path d="M380 160c-40 60-100 120-180 160 60-20 120-60 160-100-40 60-100 100-160 120 80 0 140-40 180-80-20 40-60 80-100 100 60-20 100-60 120-100"
        fill="white"
        fill-opacity="0.9"
        stroke="white"
        stroke-width="8"
        stroke-linecap="round"
        stroke-linejoin="round"/>
  <!-- Book icon overlay -->
  <g transform="translate(140, 280)">
    <rect x="0" y="0" width="100" height="80" rx="8" fill="white" fill-opacity="0.95"/>
    <rect x="48" y="0" width="4" height="80" fill="#F58C3B"/>
    <line x1="15" y1="20" x2="40" y2="20" stroke="#F58C3B" stroke-width="4" stroke-linecap="round"/>
    <line x1="15" y1="35" x2="35" y2="35" stroke="#F58C3B" stroke-width="4" stroke-linecap="round"/>
    <line x1="15" y1="50" x2="38" y2="50" stroke="#F58C3B" stroke-width="4" stroke-linecap="round"/>
    <line x1="60" y1="20" x2="85" y2="20" stroke="#F58C3B" stroke-width="4" stroke-linecap="round"/>
    <line x1="60" y1="35" x2="80" y2="35" stroke="#F58C3B" stroke-width="4" stroke-linecap="round"/>
    <line x1="60" y1="50" x2="83" y2="50" stroke="#F58C3B" stroke-width="4" stroke-linecap="round"/>
  </g>
</svg>
